<?xml version="1.0" encoding="UTF-8"?>
<svg id="Calque_2" data-name="Calque 2" xmlns="http://www.w3.org/2000/svg" viewBox="0 0 541.01 550.24">
  <defs>
    <style>
      .cls-1 {
        fill: #40D4C0;
        stroke-width: 0px;
      }
    </style>
  </defs>
  <g id="Layer_1">
    <g>
      <path class="cls-1" d="M199.82,413.65C87.77,413.65,0,352.81,0,275.14s87.77-138.51,199.82-138.51c125.14,0,239.5,110.76,244.3,115.47l23.49,23.04-23.49,23.04c-4.81,4.71-119.17,115.47-244.3,115.47ZM199.82,201.17c-79.72,0-135.28,38.98-135.28,73.97s55.56,73.97,135.28,73.97c67.67,0,135.81-45.27,172.2-73.97-36.4-28.7-104.54-73.97-172.2-73.97Z"/>
      <path class="cls-1" d="M404.8,550.24H0v-287.59h64.54v223.06h340.27c63.52,0,71.67-36.33,71.67-67.98,0-59.6-54.68-102.72-80.96-123.45-5.32-4.19-9.52-7.5-12.89-10.6l43.67-47.52c1.58,1.45,5.44,4.5,9.18,7.45,31.58,24.91,105.53,83.23,105.53,174.12,0,82.98-50.92,132.52-136.21,132.52Z"/>
      <path class="cls-1" d="M426.3,314.09l-43.67-47.52c3.37-3.1,7.57-6.41,12.88-10.6,26.28-20.73,80.96-63.85,80.96-123.45,0-31.65-8.15-67.98-71.67-67.98H64.54v223.06H0V0h404.8c85.29,0,136.21,49.54,136.21,132.52,0,90.89-73.95,149.22-105.53,174.13-3.74,2.95-7.6,5.99-9.18,7.44Z"/>
    </g>
  </g>
</svg>